# xmcd
#
# Track frame offsets: 
#        150
#        10668
#        35522
#        70742
#        83691
#        102768
#        167860
#        217649
#
# Disc length: 3359 seconds
#
# Revision: 0
# Processed by: cddbd v1.5.2PL0 Copyright (c) Steve Scherf et al.
# Submitted via: ExactAudioCopy v0.95b3
#
DISCID=550d1d08
DTITLE=Jimi Hendrix  - The Stockholm Concert Vol. 1  FLAC
DYEAR=1900
DGENRE=
TTITLE0=Introduction
TTITLE1=Killing Floor
TTITLE2=Spanish Castle Magic
TTITLE3=Fire
TTITLE4=Hey Joe
TTITLE5=Voodoo Chile
TTITLE6=Red House
TTITLE7=Sunshine Of Your Love
EXTD=
EXTT0=
EXTT1=
EXTT2=
EXTT3=
EXTT4=
EXTT5=
EXTT6=
EXTT7=
PLAYORDER=
